<svg width="1600" height="1200" viewBox="0 0 1600 1200" fill="none" xmlns="http://www.w3.org/2000/svg">
  <rect width="1600" height="1200" fill="#EFF7F6"/>
  <circle cx="1195" cy="242" r="260" fill="#BDEFE4"/>
  <circle cx="308" cy="938" r="246" fill="#D6F6EE"/>
  <rect x="136" y="160" width="1328" height="880" rx="44" fill="white"/>
  <rect x="200" y="224" width="540" height="752" rx="36" fill="#1F2A44"/>
  <circle cx="470" cy="428" r="120" fill="#35D0AD"/>
  <rect x="328" y="566" width="284" height="208" rx="32" fill="#2F4268"/>
  <rect x="292" y="810" width="356" height="96" rx="26" fill="#324B77"/>
  <rect x="810" y="246" width="540" height="106" rx="30" fill="#E8F7F2"/>
  <rect x="850" y="286" width="250" height="18" rx="9" fill="#95B7AE"/>
  <rect x="810" y="394" width="540" height="270" rx="36" fill="#F4FBF8"/>
  <circle cx="972" cy="512" r="84" fill="#D1F5EA"/>
  <rect x="1068" y="452" width="212" height="124" rx="28" fill="#DDECF0"/>
  <rect x="810" y="706" width="254" height="192" rx="30" fill="#D5F7EF"/>
  <rect x="1096" y="706" width="254" height="192" rx="30" fill="#E8EDF7"/>
  <path d="M475 345C535.199 345 584 393.801 584 454V526H366V454C366 393.801 414.801 345 475 345Z" fill="#F3B07C"/>
  <circle cx="475" cy="298" r="86" fill="#F3B07C"/>
  <path d="M403 292C403 245.056 441.056 207 488 207H518C556.944 207 588.5 238.556 588.5 277.5V288.5L562 266L548 222L521 204L470 224L430 246L403 292Z" fill="#24314F"/>
  <path d="M452 526H498L542 820H408L452 526Z" fill="white"/>
  <rect x="430" y="598" width="90" height="28" rx="14" fill="#D9E5F1"/>
</svg>
