<svg width="1600" height="1200" viewBox="0 0 1600 1200" fill="none" xmlns="http://www.w3.org/2000/svg">
  <rect width="1600" height="1200" fill="#06111A"/>
  <rect width="1600" height="1200" fill="url(#paint0_radial)"/>
  <circle cx="298" cy="252" r="260" fill="#34D399" fill-opacity="0.18"/>
  <circle cx="1234" cy="260" r="250" fill="#22D3EE" fill-opacity="0.16"/>
  <circle cx="1096" cy="910" r="310" fill="#0F766E" fill-opacity="0.22"/>
  <rect x="128" y="132" width="1344" height="936" rx="42" fill="#F8FAFC" fill-opacity="0.08" stroke="white" stroke-opacity="0.12"/>
  <rect x="196" y="206" width="420" height="768" rx="34" fill="#0B4F6C" fill-opacity="0.95"/>
  <rect x="246" y="266" width="180" height="18" rx="9" fill="white" fill-opacity="0.34"/>
  <rect x="246" y="326" width="320" height="98" rx="24" fill="white" fill-opacity="0.1"/>
  <rect x="246" y="454" width="320" height="98" rx="24" fill="#0F766E" fill-opacity="0.55"/>
  <rect x="246" y="582" width="320" height="98" rx="24" fill="white" fill-opacity="0.1"/>
  <rect x="246" y="710" width="320" height="200" rx="28" fill="#CCFBF1" fill-opacity="0.92"/>
  <path d="M406 764H454V812H502V860H454V908H406V860H358V812H406V764Z" fill="#0B4F6C"/>
  <rect x="682" y="206" width="722" height="278" rx="34" fill="#F8FAFC" fill-opacity="0.94"/>
  <rect x="732" y="262" width="220" height="18" rx="9" fill="#0B4F6C" fill-opacity="0.24"/>
  <rect x="732" y="318" width="622" height="42" rx="21" fill="#E2E8F0"/>
  <rect x="732" y="390" width="180" height="120" rx="28" fill="#CCFBF1"/>
  <rect x="936" y="390" width="180" height="120" rx="28" fill="#CFFAFE"/>
  <rect x="1140" y="390" width="180" height="120" rx="28" fill="#DCFCE7"/>
  <rect x="682" y="530" width="722" height="444" rx="34" fill="#0F172A" fill-opacity="0.84"/>
  <rect x="734" y="586" width="220" height="18" rx="9" fill="white" fill-opacity="0.32"/>
  <rect x="734" y="644" width="620" height="58" rx="22" fill="white" fill-opacity="0.1"/>
  <rect x="734" y="740" width="288" height="186" rx="28" fill="#0B4F6C"/>
  <rect x="1048" y="740" width="306" height="186" rx="28" fill="#134E4A"/>
  <circle cx="878" cy="832" r="44" fill="#5EEAD4" fill-opacity="0.18"/>
  <circle cx="1202" cy="832" r="44" fill="#67E8F9" fill-opacity="0.18"/>
  <defs>
    <radialGradient id="paint0_radial" cx="0" cy="0" r="1" gradientUnits="userSpaceOnUse" gradientTransform="translate(800 0) rotate(90) scale(1200 1600)">
      <stop stop-color="#0F766E" stop-opacity="0.24"/>
      <stop offset="1" stop-color="#06111A" stop-opacity="0"/>
    </radialGradient>
  </defs>
</svg>
